<svg xmlns="http://www.w3.org/2000/svg" width="472" height="352" class="svgbob"><style>.svgbob line, .svgbob path, .svgbob circle, .svgbob rect, .svgbob polygon {
    stroke: black;
    stroke-width: 2;
    stroke-opacity: 1;
    fill-opacity: 1;
    stroke-linecap: round;
    stroke-linejoin: miter;
}
.svgbob text {
    white-space: pre;
    fill: black;
    font-family: Iosevka Fixed, monospace;
    font-size: 14px;
}
.svgbob rect.backdrop {
    stroke: none;
    fill: white;
}
.svgbob .broken {
    stroke-dasharray: 8;
}
.svgbob .filled {
    fill: black;
}
.svgbob .bg_filled {
    fill: white;
    stroke-width: 1;
}
.svgbob .nofill {
    fill: white;
}
.svgbob .end_marked_arrow {
    marker-end: url(#arrow);
}
.svgbob .start_marked_arrow {
    marker-start: url(#arrow);
}
.svgbob .end_marked_diamond {
    marker-end: url(#diamond);
}
.svgbob .start_marked_diamond {
    marker-start: url(#diamond);
}
.svgbob .end_marked_circle {
    marker-end: url(#circle);
}
.svgbob .start_marked_circle {
    marker-start: url(#circle);
}
.svgbob .end_marked_open_circle {
    marker-end: url(#open_circle);
}
.svgbob .start_marked_open_circle {
    marker-start: url(#open_circle);
}
.svgbob .end_marked_big_open_circle {
    marker-end: url(#big_open_circle);
}
.svgbob .start_marked_big_open_circle {
    marker-start: url(#big_open_circle);
}<!--separator--></style><defs><marker id="arrow" viewBox="-2 -2 8 8" refX="4" refY="2" markerWidth="7" markerHeight="7" orient="auto-start-reverse"><polygon points="0,0 0,4 4,2 0,0"></polygon></marker><marker id="diamond" viewBox="-2 -2 8 8" refX="4" refY="2" markerWidth="7" markerHeight="7" orient="auto-start-reverse"><polygon points="0,2 2,0 4,2 2,4 0,2"></polygon></marker><marker id="circle" viewBox="0 0 8 8" refX="4" refY="4" markerWidth="7" markerHeight="7" orient="auto-start-reverse"><circle cx="4" cy="4" r="2" class="filled"></circle></marker><marker id="open_circle" viewBox="0 0 8 8" refX="4" refY="4" markerWidth="7" markerHeight="7" orient="auto-start-reverse"><circle cx="4" cy="4" r="2" class="bg_filled"></circle></marker><marker id="big_open_circle" viewBox="0 0 8 8" refX="4" refY="4" markerWidth="7" markerHeight="7" orient="auto-start-reverse"><circle cx="4" cy="4" r="3" class="bg_filled"></circle></marker></defs><rect class="backdrop" x="0" y="0" width="472" height="352"></rect><rect x="4" y="8" width="192" height="240" class="solid nofill" rx="0"></rect><rect x="20" y="40" width="160" height="32" class="solid nofill" rx="0"></rect><text x="82" y="60" >value</text><rect x="20" y="152" width="160" height="32" class="solid nofill" rx="0"></rect><text x="74" y="172" >function</text><text x="82" y="28" >thunk</text><line x1="100" y1="80" x2="100" y2="96" class="solid"></line><text x="82" y="108" >input</text><line x1="100" y1="112" x2="100" y2="132" class="solid"></line><polygon points="96,132 104,132 100,144" class="filled"></polygon><line x1="100" y1="192" x2="100" y2="208" class="solid"></line><text x="82" y="220" >output</text><rect x="20" y="296" width="160" height="32" class="solid nofill" rx="0"></rect><text x="82" y="316" >value</text><rect x="268" y="8" width="192" height="240" class="solid nofill" rx="0"></rect><rect x="284" y="40" width="160" height="32" class="solid nofill" rx="0"></rect><text x="346" y="60" >file</text><rect x="284" y="152" width="160" height="32" class="solid nofill" rx="0"></rect><text x="322" y="172" >instructions</text><text x="338" y="28" >process</text><line x1="364" y1="80" x2="364" y2="96" class="solid"></line><text x="346" y="108" >read</text><line x1="364" y1="112" x2="364" y2="132" class="solid"></line><polygon points="360,132 368,132 364,144" class="filled"></polygon><line x1="364" y1="192" x2="364" y2="208" class="solid"></line><text x="346" y="220" >write</text><rect x="284" y="296" width="160" height="32" class="solid nofill" rx="0"></rect><text x="346" y="316" >file</text><line x1="100" y1="224" x2="100" y2="276" class="solid"></line><polygon points="96,276 104,276 100,288" class="filled"></polygon><line x1="364" y1="224" x2="364" y2="276" class="solid"></line><polygon points="360,276 368,276 364,288" class="filled"></polygon></svg>