<svg width="587" height="521" viewBox="0 0 587 521" fill="none" xmlns="http://www.w3.org/2000/svg">
<path d="M160.207 313.811L187.549 266.453L307.17 473.646H252.486L225.144 426.288L197.802 473.646H170.46L156.789 449.967L197.802 378.929L160.207 313.811Z" fill="url(#paint0_linear_2383_3)"/>
<path d="M180.713 171.737L235.397 171.737L115.776 378.93L88.4339 331.571L115.776 284.213L61.0918 284.213L47.4208 260.534L61.0918 236.854L143.118 236.854L180.713 171.737Z" fill="url(#paint1_linear_2383_3)"/>
<path d="M314.007 118.46L341.349 165.819L102.105 165.819L129.448 118.46L184.132 118.46L156.79 71.1021L170.461 47.4229L197.803 47.4229L238.816 118.46L314.007 118.46Z" fill="url(#paint2_linear_2383_3)"/>
<path d="M426.793 207.255L399.451 254.613L279.83 47.4205L334.514 47.4205L361.856 94.7789L389.198 47.4205H416.54L430.211 71.0997L389.198 142.137L426.793 207.255Z" fill="url(#paint3_linear_2383_3)"/>
<path d="M406.287 349.33L351.603 349.33L471.224 142.137L498.566 189.495L471.224 236.854L525.908 236.854L539.579 260.533L525.908 284.212L443.882 284.212L406.287 349.33Z" fill="url(#paint4_linear_2383_3)"/>
<path d="M272.993 402.61L245.651 355.252L484.895 355.252L457.552 402.61L402.868 402.61L430.21 449.968L416.539 473.647L389.197 473.647L348.184 402.61L272.993 402.61Z" fill="url(#paint5_linear_2383_3)"/>
<defs>
<linearGradient id="paint0_linear_2383_3" x1="156.789" y1="260.533" x2="252.488" y2="426.287" gradientUnits="userSpaceOnUse">
<stop stop-color="#3E5993"/>
<stop offset="0.25" stop-color="#4564A5"/>
<stop offset="1" stop-color="#4D6FB7"/>
</linearGradient>
<linearGradient id="paint1_linear_2383_3" x1="225.144" y1="142.138" x2="129.445" y2="307.891" gradientUnits="userSpaceOnUse">
<stop stop-color="#6D9BBC"/>
<stop offset="0.25" stop-color="#72A9CF"/>
<stop offset="1" stop-color="#77B6E1"/>
</linearGradient>
<linearGradient id="paint2_linear_2383_3" x1="361.855" y1="142.14" x2="170.461" y2="142.14" gradientUnits="userSpaceOnUse">
<stop stop-color="#3E5993"/>
<stop offset="0.25" stop-color="#4564A5"/>
<stop offset="1" stop-color="#4D6FB7"/>
</linearGradient>
<linearGradient id="paint3_linear_2383_3" x1="430.211" y1="260.533" x2="334.512" y2="94.7797" gradientUnits="userSpaceOnUse">
<stop stop-color="#6D9BBC"/>
<stop offset="0.25" stop-color="#72A9CF"/>
<stop offset="1" stop-color="#77B6E1"/>
</linearGradient>
<linearGradient id="paint4_linear_2383_3" x1="361.856" y1="378.929" x2="457.555" y2="213.175" gradientUnits="userSpaceOnUse">
<stop stop-color="#3E5993"/>
<stop offset="0.25" stop-color="#4564A5"/>
<stop offset="1" stop-color="#4D6FB7"/>
</linearGradient>
<linearGradient id="paint5_linear_2383_3" x1="225.145" y1="378.931" x2="416.539" y2="378.931" gradientUnits="userSpaceOnUse">
<stop stop-color="#6D9BBC"/>
<stop offset="0.25" stop-color="#72A9CF"/>
<stop offset="1" stop-color="#77B6E1"/>
</linearGradient>
</defs>
</svg>
