<svg xmlns="http://www.w3.org/2000/svg" width="634.81" height="515.993" viewBox="0 0 595.135 483.744"><g style="display:inline"><g aria-label="Nix" style="font-style:normal;font-variant:normal;font-weight:400;font-stretch:normal;font-size:395.09683228px;line-height:125%;font-family:Carlito;-inkscape-font-specification:Carlito;letter-spacing:0;word-spacing:0;display:inline;opacity:1;fill:#000;fill-opacity:1;stroke:none;stroke-width:1px;stroke-linecap:butt;stroke-linejoin:miter;stroke-opacity:1"><path d="M969.153-847.118h-30.817v139.864c0 19.755.79 50.967 1.975 85.736h-1.185c-15.409-28.842-32.793-56.499-45.041-75.464l-96.799-150.136h-42.275v267.875h30.817v-139.864c0-19.755-.79-56.894-1.975-91.267h1.185c22.916 39.904 36.349 62.03 48.992 80.995l96.799 150.136h38.324zM1027.825-579.243h33.188V-770.47h-33.188zm16.594-219.278c11.458 0 20.545-9.088 20.545-20.545 0-11.458-9.087-20.545-20.545-20.545-11.458 0-20.545 9.087-20.545 20.545 0 11.457 9.087 20.545 20.545 20.545zM1267.779-770.47h-37.93l-46.621 70.328h-1.186l-45.04-70.328h-41.09l68.351 93.243v1.186l-70.722 96.798h37.93l49.781-75.858h1.186l49.782 75.858h41.09l-72.303-98.379v-1.185z" style="font-style:normal;font-variant:normal;font-weight:400;font-stretch:normal;font-family:Vegur;-inkscape-font-specification:Vegur" transform="translate(-683.067 957.778)"/></g></g></svg>